<svg viewBox="0 0 344 131" fill="none" xmlns="http://www.w3.org/2000/svg">
<rect width="344" height="131" rx="8" fill="#13151B"/>
<path d="M15.7585 18.2727H18.0341L20.4375 24.1364H20.5398L22.9432 18.2727H25.2188V27H23.429V21.3196H23.3565L21.098 26.9574H19.8793L17.6207 21.2983H17.5483V27H15.7585V18.2727ZM29.6623 27.1278C29.0004 27.1278 28.4279 26.9872 27.945 26.706C27.4648 26.4219 27.0941 26.027 26.8327 25.5213C26.5714 25.0128 26.4407 24.4233 26.4407 23.7528C26.4407 23.0767 26.5714 22.4858 26.8327 21.9801C27.0941 21.4716 27.4648 21.0767 27.945 20.7955C28.4279 20.5114 29.0004 20.3693 29.6623 20.3693C30.3242 20.3693 30.8952 20.5114 31.3754 20.7955C31.8583 21.0767 32.2305 21.4716 32.4918 21.9801C32.7532 22.4858 32.8839 23.0767 32.8839 23.7528C32.8839 24.4233 32.7532 25.0128 32.4918 25.5213C32.2305 26.027 31.8583 26.4219 31.3754 26.706C30.8952 26.9872 30.3242 27.1278 29.6623 27.1278ZM29.6708 25.7216C29.9719 25.7216 30.2234 25.6364 30.4251 25.4659C30.6268 25.2926 30.7788 25.0568 30.881 24.7585C30.9862 24.4602 31.0387 24.1207 31.0387 23.7401C31.0387 23.3594 30.9862 23.0199 30.881 22.7216C30.7788 22.4233 30.6268 22.1875 30.4251 22.0142C30.2234 21.8409 29.9719 21.7543 29.6708 21.7543C29.3668 21.7543 29.1112 21.8409 28.9038 22.0142C28.6992 22.1875 28.5444 22.4233 28.4393 22.7216C28.337 23.0199 28.2859 23.3594 28.2859 23.7401C28.2859 24.1207 28.337 24.4602 28.4393 24.7585C28.5444 25.0568 28.6992 25.2926 28.9038 25.4659C29.1112 25.6364 29.3668 25.7216 29.6708 25.7216ZM36.4762 27.1065C35.979 27.1065 35.5288 26.9787 35.1254 26.723C34.7248 26.4645 34.4066 26.0852 34.1708 25.5852C33.9379 25.0824 33.8214 24.4659 33.8214 23.7358C33.8214 22.9858 33.9421 22.3622 34.1836 21.8651C34.4251 21.3651 34.7461 20.9915 35.1467 20.7443C35.5501 20.4943 35.9918 20.3693 36.4719 20.3693C36.8384 20.3693 37.1438 20.4318 37.3881 20.5568C37.6353 20.679 37.8342 20.8324 37.9847 21.017C38.1381 21.1989 38.2546 21.3778 38.3342 21.554H38.3896V18.2727H40.2006V27H38.4109V25.9517H38.3342C38.2489 26.1335 38.1282 26.3139 37.9719 26.4929C37.8185 26.669 37.6183 26.8153 37.3711 26.9318C37.1268 27.0483 36.8285 27.1065 36.4762 27.1065ZM37.0515 25.6619C37.3441 25.6619 37.5913 25.5824 37.793 25.4233C37.9975 25.2614 38.1538 25.0355 38.2617 24.7457C38.3725 24.456 38.4279 24.1165 38.4279 23.7273C38.4279 23.3381 38.3739 23 38.266 22.7131C38.158 22.4261 38.0018 22.2045 37.7972 22.0483C37.5927 21.892 37.3441 21.8139 37.0515 21.8139C36.7532 21.8139 36.5018 21.8949 36.2972 22.0568C36.0927 22.2187 35.9379 22.4432 35.8327 22.7301C35.7276 23.017 35.6751 23.3494 35.6751 23.7273C35.6751 24.108 35.7276 24.4446 35.8327 24.7372C35.9407 25.027 36.0955 25.2543 36.2972 25.419C36.5018 25.581 36.7532 25.6619 37.0515 25.6619ZM45.8906 24.2131V20.4545H47.706V27H45.9631V25.8111H45.8949C45.7472 26.1946 45.5014 26.5028 45.1577 26.7358C44.8168 26.9687 44.4006 27.0852 43.9091 27.0852C43.4716 27.0852 43.0866 26.9858 42.7543 26.7869C42.4219 26.5881 42.1619 26.3054 41.9744 25.9389C41.7898 25.5724 41.696 25.1335 41.6932 24.6222V20.4545H43.5085V24.2983C43.5114 24.6847 43.6151 24.9901 43.8196 25.2145C44.0241 25.4389 44.2983 25.5511 44.642 25.5511C44.8608 25.5511 45.0653 25.5014 45.2557 25.402C45.446 25.2997 45.5994 25.1491 45.7159 24.9503C45.8352 24.7514 45.8935 24.5057 45.8906 24.2131ZM50.9734 18.2727V27H49.158V18.2727H50.9734ZM55.4105 27.1278C54.7372 27.1278 54.1577 26.9915 53.6719 26.7188C53.1889 26.4432 52.8168 26.054 52.5554 25.5511C52.294 25.0455 52.1634 24.4474 52.1634 23.7571C52.1634 23.0838 52.294 22.4929 52.5554 21.9844C52.8168 21.4759 53.1847 21.0795 53.6591 20.7955C54.1364 20.5114 54.696 20.3693 55.3381 20.3693C55.7699 20.3693 56.1719 20.4389 56.544 20.5781C56.919 20.7145 57.2457 20.9205 57.5241 21.196C57.8054 21.4716 58.0241 21.8182 58.1804 22.2358C58.3366 22.6506 58.4148 23.1364 58.4148 23.6932V24.1918H52.8878V23.0668H56.706C56.706 22.8054 56.6491 22.5739 56.5355 22.3722C56.4219 22.1705 56.2642 22.0128 56.0625 21.8991C55.8636 21.7827 55.6321 21.7244 55.3679 21.7244C55.0923 21.7244 54.848 21.7884 54.6349 21.9162C54.4247 22.0412 54.2599 22.2102 54.1406 22.4233C54.0213 22.6335 53.9602 22.8679 53.9574 23.1264V24.196C53.9574 24.5199 54.017 24.7997 54.1364 25.0355C54.2585 25.2713 54.4304 25.4531 54.652 25.581C54.8736 25.7088 55.1364 25.7727 55.4403 25.7727C55.642 25.7727 55.8267 25.7443 55.9943 25.6875C56.1619 25.6307 56.3054 25.5455 56.4247 25.4318C56.544 25.3182 56.6349 25.179 56.6974 25.0142L58.3764 25.125C58.2912 25.5284 58.1165 25.8807 57.8523 26.1818C57.5909 26.4801 57.2528 26.7131 56.8381 26.8807C56.4261 27.0455 55.9503 27.1278 55.4105 27.1278ZM65.0455 22.321L63.3835 22.4233C63.3551 22.2812 63.294 22.1534 63.2003 22.0398C63.1065 21.9233 62.983 21.831 62.8295 21.7628C62.679 21.6918 62.4986 21.6562 62.2884 21.6562C62.0071 21.6562 61.7699 21.7159 61.5767 21.8352C61.3835 21.9517 61.2869 22.108 61.2869 22.304C61.2869 22.4602 61.3494 22.5923 61.4744 22.7003C61.5994 22.8082 61.8139 22.8949 62.1179 22.9602L63.3026 23.1989C63.9389 23.3295 64.4134 23.5398 64.7259 23.8295C65.0384 24.1193 65.1946 24.5 65.1946 24.9716C65.1946 25.4006 65.0682 25.777 64.8153 26.1009C64.5653 26.4247 64.2216 26.6776 63.7841 26.8594C63.3494 27.0384 62.848 27.1278 62.2798 27.1278C61.4134 27.1278 60.723 26.9474 60.2088 26.5866C59.6974 26.223 59.3977 25.7287 59.3097 25.1037L61.0952 25.0099C61.1491 25.2741 61.2798 25.4759 61.4872 25.6151C61.6946 25.7514 61.9602 25.8196 62.2841 25.8196C62.6023 25.8196 62.858 25.7585 63.0511 25.6364C63.2472 25.5114 63.3466 25.3509 63.3494 25.1548C63.3466 24.9901 63.277 24.8551 63.1406 24.75C63.0043 24.642 62.794 24.5597 62.5099 24.5028L61.3764 24.277C60.7372 24.1491 60.2614 23.9276 59.9489 23.6122C59.6392 23.2969 59.4844 22.8949 59.4844 22.4062C59.4844 21.9858 59.598 21.6236 59.8253 21.3196C60.0554 21.0156 60.3778 20.7812 60.7926 20.6165C61.2102 20.4517 61.6989 20.3693 62.2585 20.3693C63.0852 20.3693 63.7358 20.544 64.2102 20.8935C64.6875 21.2429 64.9659 21.7187 65.0455 22.321Z" fill="#E2E4E9"/>
<path d="M16.5781 38L18.8047 44.5156H18.8945L21.1211 38H22.4258L19.5469 46H18.1523L15.2734 38H16.5781ZM23.4873 46V40H24.6553V46H23.4873ZM24.0771 39.0742C23.874 39.0742 23.6995 39.0065 23.5537 38.8711C23.4105 38.7331 23.3389 38.569 23.3389 38.3789C23.3389 38.1862 23.4105 38.0221 23.5537 37.8867C23.6995 37.7487 23.874 37.6797 24.0771 37.6797C24.2803 37.6797 24.4535 37.7487 24.5967 37.8867C24.7425 38.0221 24.8154 38.1862 24.8154 38.3789C24.8154 38.569 24.7425 38.7331 24.5967 38.8711C24.4535 39.0065 24.2803 39.0742 24.0771 39.0742ZM28.8125 46.1211C28.2214 46.1211 27.7122 45.9948 27.2852 45.7422C26.8607 45.487 26.5326 45.1289 26.3008 44.668C26.0716 44.2044 25.957 43.6615 25.957 43.0391C25.957 42.4245 26.0716 41.8828 26.3008 41.4141C26.5326 40.9453 26.8555 40.5794 27.2695 40.3164C27.6862 40.0534 28.1732 39.9219 28.7305 39.9219C29.069 39.9219 29.3971 39.9779 29.7148 40.0898C30.0326 40.2018 30.3177 40.3776 30.5703 40.6172C30.8229 40.8568 31.0221 41.168 31.168 41.5508C31.3138 41.931 31.3867 42.3932 31.3867 42.9375V43.3516H26.6172V42.4766H30.2422C30.2422 42.1693 30.1797 41.8971 30.0547 41.6602C29.9297 41.4206 29.7539 41.2318 29.5273 41.0937C29.3034 40.9557 29.0404 40.8867 28.7383 40.8867C28.4102 40.8867 28.1237 40.9674 27.8789 41.1289C27.6367 41.2878 27.4492 41.4961 27.3164 41.7539C27.1862 42.0091 27.1211 42.2865 27.1211 42.5859V43.2695C27.1211 43.6706 27.1914 44.0117 27.332 44.293C27.4753 44.5742 27.6745 44.7891 27.9297 44.9375C28.1849 45.0833 28.4831 45.1562 28.8242 45.1562C29.0456 45.1562 29.2474 45.125 29.4297 45.0625C29.612 44.9974 29.7695 44.901 29.9023 44.7734C30.0352 44.6458 30.1367 44.4883 30.207 44.3008L31.3125 44.5C31.224 44.8255 31.0651 45.1107 30.8359 45.3555C30.6094 45.5977 30.3242 45.7865 29.9805 45.9219C29.6393 46.0547 29.25 46.1211 28.8125 46.1211ZM33.9727 46L32.207 40H33.4141L34.5898 44.4062H34.6484L35.8281 40H37.0352L38.207 44.3867H38.2656L39.4336 40H40.6406L38.8789 46H37.6875L36.4688 41.668H36.3789L35.1602 46H33.9727ZM46.4063 46.1328C46.026 46.1328 45.6823 46.0625 45.375 45.9219C45.0677 45.7786 44.8242 45.5716 44.6445 45.3008C44.4674 45.0299 44.3789 44.6979 44.3789 44.3047C44.3789 43.9661 44.444 43.6875 44.5742 43.4687C44.7044 43.25 44.8802 43.0768 45.1016 42.9492C45.3229 42.8216 45.5703 42.7253 45.8438 42.6602C46.1172 42.5951 46.3958 42.5456 46.6797 42.5117C47.0391 42.4701 47.3307 42.4362 47.5547 42.4102C47.7786 42.3815 47.9414 42.3359 48.043 42.2734C48.1445 42.2109 48.1953 42.1094 48.1953 41.9687V41.9414C48.1953 41.6003 48.099 41.3359 47.9063 41.1484C47.7161 40.9609 47.4323 40.8672 47.0547 40.8672C46.6615 40.8672 46.3516 40.9544 46.125 41.1289C45.901 41.3008 45.7461 41.4922 45.6602 41.7031L44.5625 41.4531C44.6927 41.0885 44.8828 40.7943 45.1328 40.5703C45.3854 40.3437 45.6758 40.1797 46.0039 40.0781C46.332 39.974 46.6771 39.9219 47.0391 39.9219C47.2786 39.9219 47.5326 39.9505 47.8008 40.0078C48.0716 40.0625 48.3242 40.1641 48.5586 40.3125C48.7956 40.4609 48.9896 40.6732 49.1406 40.9492C49.2917 41.2227 49.3672 41.5781 49.3672 42.0156V46H48.2266V45.1797H48.1797C48.1042 45.3307 47.9909 45.4792 47.8398 45.625C47.6888 45.7708 47.4948 45.8919 47.2578 45.9883C47.0208 46.0846 46.737 46.1328 46.4063 46.1328ZM46.6602 45.1953C46.9831 45.1953 47.2591 45.1315 47.4883 45.0039C47.7201 44.8763 47.8958 44.7096 48.0156 44.5039C48.138 44.2956 48.1992 44.0729 48.1992 43.8359V43.0625C48.1576 43.1042 48.0768 43.1432 47.957 43.1797C47.8398 43.2135 47.7057 43.2435 47.5547 43.2695C47.4036 43.293 47.2565 43.3151 47.1133 43.3359C46.9701 43.3542 46.8503 43.3698 46.7539 43.3828C46.5273 43.4115 46.3203 43.4596 46.1328 43.5273C45.9479 43.5951 45.7995 43.6927 45.6875 43.8203C45.5781 43.9453 45.5234 44.112 45.5234 44.3203C45.5234 44.6094 45.6302 44.8281 45.8438 44.9766C46.0573 45.1224 46.3294 45.1953 46.6602 45.1953ZM52.0908 42.4375V46H50.9229V40H52.0439V40.9766H52.1182C52.2562 40.6589 52.4723 40.4036 52.7666 40.2109C53.0635 40.0182 53.4372 39.9219 53.8877 39.9219C54.2965 39.9219 54.6546 40.0078 54.9619 40.1797C55.2692 40.349 55.5075 40.6016 55.6768 40.9375C55.846 41.2734 55.9307 41.6888 55.9307 42.1836V46H54.7627V42.3242C54.7627 41.8893 54.6494 41.5495 54.4229 41.3047C54.1963 41.0573 53.8851 40.9336 53.4893 40.9336C53.2184 40.9336 52.9775 40.9922 52.7666 41.1094C52.5583 41.2266 52.3929 41.3984 52.2705 41.625C52.1507 41.849 52.0908 42.1198 52.0908 42.4375ZM59.7432 46.1172C59.2588 46.1172 58.8265 45.9935 58.4463 45.7461C58.0687 45.4961 57.7718 45.1406 57.5557 44.6797C57.3421 44.2161 57.2354 43.6602 57.2354 43.0117C57.2354 42.3633 57.3434 41.8086 57.5596 41.3477C57.7783 40.8867 58.0778 40.5339 58.458 40.2891C58.8382 40.0443 59.2692 39.9219 59.751 39.9219C60.1234 39.9219 60.4229 39.9844 60.6494 40.1094C60.8786 40.2318 61.0557 40.375 61.1807 40.5391C61.3083 40.7031 61.4072 40.8477 61.4775 40.9727H61.5479V38H62.7158V46H61.5752V45.0664H61.4775C61.4072 45.194 61.3057 45.3398 61.1729 45.5039C61.0426 45.668 60.863 45.8112 60.6338 45.9336C60.4046 46.056 60.1077 46.1172 59.7432 46.1172ZM60.001 45.1211C60.3369 45.1211 60.6208 45.0326 60.8525 44.8555C61.0869 44.6758 61.264 44.4271 61.3838 44.1094C61.5062 43.7917 61.5674 43.4219 61.5674 43C61.5674 42.5833 61.5075 42.2187 61.3877 41.9062C61.2679 41.5937 61.0921 41.3503 60.8604 41.1758C60.6286 41.0013 60.3421 40.9141 60.001 40.9141C59.6494 40.9141 59.3564 41.0052 59.1221 41.1875C58.8877 41.3698 58.7106 41.6185 58.5908 41.9336C58.4736 42.2487 58.415 42.6042 58.415 43C58.415 43.401 58.4749 43.7617 58.5947 44.082C58.7145 44.4023 58.8916 44.6562 59.126 44.8437C59.363 45.0286 59.6546 45.1211 60.001 45.1211ZM67.2939 46V40H68.415V40.9766H68.4893C68.6143 40.6458 68.8187 40.388 69.1025 40.2031C69.3864 40.0156 69.7262 39.9219 70.1221 39.9219C70.5231 39.9219 70.859 40.0156 71.1299 40.2031C71.4033 40.3906 71.6051 40.6484 71.7354 40.9766H71.7979C71.9411 40.6562 72.1689 40.401 72.4814 40.2109C72.7939 40.0182 73.1663 39.9219 73.5986 39.9219C74.1429 39.9219 74.5869 40.0924 74.9307 40.4336C75.277 40.7747 75.4502 41.2891 75.4502 41.9766V46H74.2822V42.0859C74.2822 41.6797 74.1715 41.3854 73.9502 41.2031C73.7288 41.0208 73.4645 40.9297 73.1572 40.9297C72.777 40.9297 72.4814 41.0469 72.2705 41.2812C72.0596 41.513 71.9541 41.8112 71.9541 42.1758V46H70.79V42.0117C70.79 41.6862 70.6885 41.4245 70.4854 41.2266C70.2822 41.0286 70.0179 40.9297 69.6924 40.9297C69.471 40.9297 69.2666 40.9883 69.0791 41.1055C68.8942 41.2201 68.7445 41.3802 68.6299 41.5859C68.5179 41.7917 68.4619 42.0299 68.4619 42.3008V46H67.2939ZM79.543 46.1211C78.9805 46.1211 78.4896 45.9922 78.0703 45.7344C77.651 45.4766 77.3255 45.1159 77.0938 44.6523C76.862 44.1888 76.7461 43.6471 76.7461 43.0273C76.7461 42.4049 76.862 41.8607 77.0938 41.3945C77.3255 40.9284 77.651 40.5664 78.0703 40.3086C78.4896 40.0508 78.9805 39.9219 79.543 39.9219C80.1055 39.9219 80.5964 40.0508 81.0156 40.3086C81.4349 40.5664 81.7604 40.9284 81.9922 41.3945C82.224 41.8607 82.3398 42.4049 82.3398 43.0273C82.3398 43.6471 82.224 44.1888 81.9922 44.6523C81.7604 45.1159 81.4349 45.4766 81.0156 45.7344C80.5964 45.9922 80.1055 46.1211 79.543 46.1211ZM79.5469 45.1406C79.9115 45.1406 80.2135 45.0443 80.4531 44.8516C80.6927 44.6589 80.8698 44.4023 80.9844 44.082C81.1016 43.7617 81.1602 43.4089 81.1602 43.0234C81.1602 42.6406 81.1016 42.2891 80.9844 41.9687C80.8698 41.6458 80.6927 41.3867 80.4531 41.1914C80.2135 40.9961 79.9115 40.8984 79.5469 40.8984C79.1797 40.8984 78.875 40.9961 78.6328 41.1914C78.3932 41.3867 78.2148 41.6458 78.0977 41.9687C77.9831 42.2891 77.9258 42.6406 77.9258 43.0234C77.9258 43.4089 77.9831 43.7617 78.0977 44.082C78.2148 44.4023 78.3932 44.6589 78.6328 44.8516C78.875 45.0443 79.1797 45.1406 79.5469 45.1406ZM85.8896 46.1172C85.4053 46.1172 84.973 45.9935 84.5928 45.7461C84.2152 45.4961 83.9183 45.1406 83.7021 44.6797C83.4886 44.2161 83.3818 43.6602 83.3818 43.0117C83.3818 42.3633 83.4899 41.8086 83.7061 41.3477C83.9248 40.8867 84.2243 40.5339 84.6045 40.2891C84.9847 40.0443 85.4157 39.9219 85.8975 39.9219C86.2699 39.9219 86.5693 39.9844 86.7959 40.1094C87.0251 40.2318 87.2021 40.375 87.3271 40.5391C87.4548 40.7031 87.5537 40.8477 87.624 40.9727H87.6943V38H88.8623V46H87.7217V45.0664H87.624C87.5537 45.194 87.4521 45.3398 87.3193 45.5039C87.1891 45.668 87.0094 45.8112 86.7803 45.9336C86.5511 46.056 86.2542 46.1172 85.8896 46.1172ZM86.1475 45.1211C86.4834 45.1211 86.7673 45.0326 86.999 44.8555C87.2334 44.6758 87.4105 44.4271 87.5303 44.1094C87.6527 43.7917 87.7139 43.4219 87.7139 43C87.7139 42.5833 87.654 42.2187 87.5342 41.9062C87.4144 41.5937 87.2386 41.3503 87.0068 41.1758C86.7751 41.0013 86.4886 40.9141 86.1475 40.9141C85.7959 40.9141 85.5029 41.0052 85.2686 41.1875C85.0342 41.3698 84.8571 41.6185 84.7373 41.9336C84.6201 42.2487 84.5615 42.6042 84.5615 43C84.5615 43.401 84.6214 43.7617 84.7412 44.082C84.861 44.4023 85.0381 44.6562 85.2725 44.8437C85.5094 45.0286 85.8011 45.1211 86.1475 45.1211ZM90.5293 46V40H91.6973V46H90.5293ZM91.1191 39.0742C90.916 39.0742 90.7415 39.0065 90.5957 38.8711C90.4525 38.7331 90.3809 38.569 90.3809 38.3789C90.3809 38.1862 90.4525 38.0221 90.5957 37.8867C90.7415 37.7487 90.916 37.6797 91.1191 37.6797C91.3223 37.6797 91.4954 37.7487 91.6387 37.8867C91.7845 38.0221 91.8574 38.1862 91.8574 38.3789C91.8574 38.569 91.7845 38.7331 91.6387 38.8711C91.4954 39.0065 91.3223 39.0742 91.1191 39.0742ZM96.124 40V40.9375H92.7334V40H96.124ZM93.6631 46V39.3047C93.6631 38.9297 93.7451 38.6185 93.9092 38.3711C94.0732 38.1211 94.2907 37.9349 94.5615 37.8125C94.8324 37.6875 95.1266 37.625 95.4443 37.625C95.6787 37.625 95.8792 37.6445 96.0459 37.6836C96.2126 37.7201 96.3363 37.7539 96.417 37.7852L96.1436 38.7305C96.0889 38.7148 96.0186 38.6966 95.9326 38.6758C95.8467 38.6523 95.7425 38.6406 95.6201 38.6406C95.3363 38.6406 95.1331 38.7109 95.0107 38.8516C94.891 38.9922 94.8311 39.1953 94.8311 39.4609V46H93.6631ZM98.0674 48.25C97.8929 48.25 97.734 48.2357 97.5908 48.207C97.4476 48.181 97.3408 48.1523 97.2705 48.1211L97.5518 47.1641C97.7653 47.2214 97.9554 47.2461 98.1221 47.2383C98.2887 47.2305 98.4359 47.168 98.5635 47.0508C98.6937 46.9336 98.8083 46.7422 98.9072 46.4766L99.0518 46.0781L96.8564 40H98.1064L99.626 44.6562H99.6885L101.208 40H102.462L99.9893 46.8008C99.8747 47.1133 99.7288 47.3776 99.5518 47.5938C99.3747 47.8125 99.1637 47.9766 98.9189 48.0859C98.6742 48.1953 98.3903 48.25 98.0674 48.25ZM108.998 46.1211C108.417 46.1211 107.917 45.9896 107.498 45.7266C107.081 45.4609 106.761 45.0951 106.537 44.6289C106.313 44.1628 106.201 43.6289 106.201 43.0273C106.201 42.418 106.316 41.8802 106.545 41.4141C106.774 40.9453 107.097 40.5794 107.514 40.3164C107.93 40.0534 108.421 39.9219 108.986 39.9219C109.442 39.9219 109.848 40.0065 110.205 40.1758C110.562 40.3424 110.85 40.5768 111.068 40.8789C111.29 41.181 111.421 41.5339 111.463 41.9375H110.326C110.264 41.6562 110.12 41.4141 109.896 41.2109C109.675 41.0078 109.378 40.9062 109.006 40.9062C108.68 40.9062 108.395 40.9922 108.15 41.1641C107.908 41.3333 107.719 41.5755 107.584 41.8906C107.449 42.2031 107.381 42.5729 107.381 43C107.381 43.4375 107.447 43.8151 107.58 44.1328C107.713 44.4505 107.9 44.6966 108.143 44.8711C108.387 45.0456 108.675 45.1328 109.006 45.1328C109.227 45.1328 109.428 45.0924 109.607 45.0117C109.79 44.9284 109.942 44.8099 110.064 44.6562C110.189 44.5026 110.277 44.3177 110.326 44.1016H111.463C111.421 44.4896 111.295 44.8359 111.084 45.1406C110.873 45.4453 110.59 45.6849 110.236 45.8594C109.885 46.0339 109.472 46.1211 108.998 46.1211ZM116.513 43.5117V40H117.685V46H116.536V44.9609H116.474C116.336 45.2813 116.114 45.5482 115.81 45.7617C115.507 45.9727 115.131 46.0781 114.681 46.0781C114.295 46.0781 113.954 45.9935 113.657 45.8242C113.363 45.6523 113.131 45.3984 112.962 45.0625C112.795 44.7266 112.712 44.3112 112.712 43.8164V40H113.88V43.6758C113.88 44.0846 113.993 44.4102 114.22 44.6523C114.446 44.8945 114.741 45.0156 115.103 45.0156C115.321 45.0156 115.539 44.9609 115.755 44.8516C115.974 44.7422 116.155 44.5768 116.298 44.3555C116.444 44.1341 116.515 43.8529 116.513 43.5117ZM119.254 46V40H120.383V40.9531H120.445C120.555 40.6302 120.747 40.3763 121.023 40.1914C121.302 40.0039 121.617 39.9102 121.969 39.9102C122.042 39.9102 122.128 39.9128 122.227 39.918C122.328 39.9232 122.408 39.9297 122.465 39.9375V41.0547C122.418 41.0417 122.335 41.0273 122.215 41.0117C122.095 40.9935 121.975 40.9844 121.855 40.9844C121.579 40.9844 121.333 41.043 121.117 41.1602C120.904 41.2747 120.734 41.4349 120.609 41.6406C120.484 41.8437 120.422 42.0755 120.422 42.3359V46H119.254ZM123.476 46V40H124.604V40.9531H124.667C124.776 40.6302 124.969 40.3763 125.245 40.1914C125.524 40.0039 125.839 39.9102 126.19 39.9102C126.263 39.9102 126.349 39.9128 126.448 39.918C126.55 39.9232 126.629 39.9297 126.687 39.9375V41.0547C126.64 41.0417 126.556 41.0273 126.437 41.0117C126.317 40.9935 126.197 40.9844 126.077 40.9844C125.801 40.9844 125.555 41.043 125.339 41.1602C125.125 41.2747 124.956 41.4349 124.831 41.6406C124.706 41.8437 124.644 42.0755 124.644 42.3359V46H123.476ZM130.068 46.1211C129.477 46.1211 128.968 45.9948 128.541 45.7422C128.117 45.487 127.788 45.1289 127.557 44.668C127.327 44.2044 127.213 43.6615 127.213 43.0391C127.213 42.4245 127.327 41.8828 127.557 41.4141C127.788 40.9453 128.111 40.5794 128.525 40.3164C128.942 40.0534 129.429 39.9219 129.986 39.9219C130.325 39.9219 130.653 39.9779 130.971 40.0898C131.288 40.2018 131.574 40.3776 131.826 40.6172C132.079 40.8568 132.278 41.168 132.424 41.5508C132.57 41.931 132.643 42.3932 132.643 42.9375V43.3516H127.873V42.4766H131.498C131.498 42.1693 131.436 41.8971 131.311 41.6602C131.186 41.4206 131.01 41.2318 130.783 41.0937C130.559 40.9557 130.296 40.8867 129.994 40.8867C129.666 40.8867 129.38 40.9674 129.135 41.1289C128.893 41.2878 128.705 41.4961 128.572 41.7539C128.442 42.0091 128.377 42.2865 128.377 42.5859V43.2695C128.377 43.6706 128.447 44.0117 128.588 44.293C128.731 44.5742 128.93 44.7891 129.186 44.9375C129.441 45.0833 129.739 45.1562 130.08 45.1562C130.301 45.1562 130.503 45.125 130.686 45.0625C130.868 44.9974 131.025 44.901 131.158 44.7734C131.291 44.6458 131.393 44.4883 131.463 44.3008L132.568 44.5C132.48 44.8255 132.321 45.1107 132.092 45.3555C131.865 45.5977 131.58 45.7865 131.236 45.9219C130.895 46.0547 130.506 46.1211 130.068 46.1211ZM135.106 42.4375V46H133.938V40H135.06V40.9766H135.134C135.272 40.6589 135.488 40.4036 135.782 40.2109C136.079 40.0182 136.453 39.9219 136.903 39.9219C137.312 39.9219 137.67 40.0078 137.978 40.1797C138.285 40.349 138.523 40.6016 138.692 40.9375C138.862 41.2734 138.946 41.6888 138.946 42.1836V46H137.778V42.3242C137.778 41.8893 137.665 41.5495 137.438 41.3047C137.212 41.0573 136.901 40.9336 136.505 40.9336C136.234 40.9336 135.993 40.9922 135.782 41.1094C135.574 41.2266 135.409 41.3984 135.286 41.625C135.166 41.849 135.106 42.1198 135.106 42.4375ZM143.313 40V40.9375H140.036V40H143.313ZM140.915 38.5625H142.083V44.2383C142.083 44.4648 142.117 44.6354 142.185 44.75C142.252 44.862 142.34 44.9388 142.446 44.9805C142.556 45.0195 142.674 45.0391 142.802 45.0391C142.896 45.0391 142.978 45.0326 143.048 45.0195C143.118 45.0065 143.173 44.9961 143.212 44.9883L143.423 45.9531C143.355 45.9792 143.259 46.0052 143.134 46.0313C143.009 46.0599 142.853 46.0755 142.665 46.0781C142.358 46.0833 142.071 46.0286 141.806 45.9141C141.54 45.7995 141.325 45.6224 141.161 45.3828C140.997 45.1432 140.915 44.8424 140.915 44.4805V38.5625ZM152.013 41.4648L150.954 41.6523C150.91 41.5169 150.84 41.388 150.743 41.2656C150.649 41.1432 150.522 41.043 150.36 40.9648C150.199 40.8867 149.997 40.8477 149.755 40.8477C149.424 40.8477 149.148 40.9219 148.927 41.0703C148.705 41.2161 148.595 41.4049 148.595 41.6367C148.595 41.8372 148.669 41.9987 148.817 42.1211C148.966 42.2435 149.205 42.3437 149.536 42.4219L150.489 42.6406C151.041 42.7682 151.453 42.9648 151.724 43.2305C151.994 43.4961 152.13 43.8411 152.13 44.2656C152.13 44.625 152.026 44.9453 151.817 45.2266C151.612 45.5052 151.324 45.724 150.954 45.8828C150.587 46.0417 150.161 46.1211 149.677 46.1211C149.005 46.1211 148.457 45.9779 148.032 45.6914C147.608 45.4023 147.347 44.9922 147.251 44.4609L148.38 44.2891C148.45 44.5833 148.595 44.806 148.813 44.957C149.032 45.1055 149.317 45.1797 149.669 45.1797C150.052 45.1797 150.358 45.1003 150.587 44.9414C150.816 44.7799 150.931 44.5833 150.931 44.3516C150.931 44.1641 150.86 44.0065 150.72 43.8789C150.582 43.7513 150.369 43.6549 150.083 43.5898L149.067 43.3672C148.507 43.2396 148.093 43.0365 147.825 42.7578C147.56 42.4792 147.427 42.1263 147.427 41.6992C147.427 41.3451 147.526 41.0352 147.724 40.7695C147.922 40.5039 148.195 40.2969 148.544 40.1484C148.893 39.9974 149.293 39.9219 149.743 39.9219C150.392 39.9219 150.902 40.0625 151.274 40.3437C151.647 40.6224 151.893 40.9961 152.013 41.4648ZM156 46.1211C155.409 46.1211 154.9 45.9948 154.473 45.7422C154.048 45.487 153.72 45.1289 153.488 44.668C153.259 44.2044 153.145 43.6615 153.145 43.0391C153.145 42.4245 153.259 41.8828 153.488 41.4141C153.72 40.9453 154.043 40.5794 154.457 40.3164C154.874 40.0534 155.361 39.9219 155.918 39.9219C156.257 39.9219 156.585 39.9779 156.902 40.0898C157.22 40.2018 157.505 40.3776 157.758 40.6172C158.01 40.8568 158.21 41.168 158.355 41.5508C158.501 41.931 158.574 42.3932 158.574 42.9375V43.3516H153.805V42.4766H157.43C157.43 42.1693 157.367 41.8971 157.242 41.6602C157.117 41.4206 156.941 41.2318 156.715 41.0937C156.491 40.9557 156.228 40.8867 155.926 40.8867C155.598 40.8867 155.311 40.9674 155.066 41.1289C154.824 41.2878 154.637 41.4961 154.504 41.7539C154.374 42.0091 154.309 42.2865 154.309 42.5859V43.2695C154.309 43.6706 154.379 44.0117 154.52 44.293C154.663 44.5742 154.862 44.7891 155.117 44.9375C155.372 45.0833 155.671 45.1562 156.012 45.1562C156.233 45.1562 156.435 45.125 156.617 45.0625C156.799 44.9974 156.957 44.901 157.09 44.7734C157.223 44.6458 157.324 44.4883 157.395 44.3008L158.5 44.5C158.411 44.8255 158.253 45.1107 158.023 45.3555C157.797 45.5977 157.512 45.7865 157.168 45.9219C156.827 46.0547 156.437 46.1211 156 46.1211ZM162.671 40V40.9375H159.394V40H162.671ZM160.272 38.5625H161.44V44.2383C161.44 44.4648 161.474 44.6354 161.542 44.75C161.61 44.862 161.697 44.9388 161.804 44.9805C161.913 45.0195 162.032 45.0391 162.159 45.0391C162.253 45.0391 162.335 45.0326 162.405 45.0195C162.476 45.0065 162.53 44.9961 162.569 44.9883L162.78 45.9531C162.713 45.9792 162.616 46.0052 162.491 46.0313C162.366 46.0599 162.21 46.0755 162.022 46.0781C161.715 46.0833 161.429 46.0286 161.163 45.9141C160.897 45.7995 160.683 45.6224 160.519 45.3828C160.354 45.1432 160.272 44.8424 160.272 44.4805V38.5625ZM166.764 40V40.9375H163.486V40H166.764ZM164.365 38.5625H165.533V44.2383C165.533 44.4648 165.567 44.6354 165.635 44.75C165.702 44.862 165.79 44.9388 165.896 44.9805C166.006 45.0195 166.124 45.0391 166.252 45.0391C166.346 45.0391 166.428 45.0326 166.498 45.0195C166.568 45.0065 166.623 44.9961 166.662 44.9883L166.873 45.9531C166.805 45.9792 166.709 46.0052 166.584 46.0313C166.459 46.0599 166.303 46.0755 166.115 46.0781C165.808 46.0833 165.521 46.0286 165.256 45.9141C164.99 45.7995 164.775 45.6224 164.611 45.3828C164.447 45.1432 164.365 44.8424 164.365 44.4805V38.5625ZM168.056 46V40H169.224V46H168.056ZM168.646 39.0742C168.442 39.0742 168.268 39.0065 168.122 38.8711C167.979 38.7331 167.907 38.569 167.907 38.3789C167.907 38.1862 167.979 38.0221 168.122 37.8867C168.268 37.7487 168.442 37.6797 168.646 37.6797C168.849 37.6797 169.022 37.7487 169.165 37.8867C169.311 38.0221 169.384 38.1862 169.384 38.3789C169.384 38.569 169.311 38.7331 169.165 38.8711C169.022 39.0065 168.849 39.0742 168.646 39.0742ZM171.963 42.4375V46H170.795V40H171.916V40.9766H171.99C172.128 40.6589 172.344 40.4036 172.639 40.2109C172.936 40.0182 173.309 39.9219 173.76 39.9219C174.169 39.9219 174.527 40.0078 174.834 40.1797C175.141 40.349 175.38 40.6016 175.549 40.9375C175.718 41.2734 175.803 41.6888 175.803 42.1836V46H174.635V42.3242C174.635 41.8893 174.521 41.5495 174.295 41.3047C174.068 41.0573 173.757 40.9336 173.361 40.9336C173.09 40.9336 172.85 40.9922 172.639 41.1094C172.43 41.2266 172.265 41.3984 172.143 41.625C172.023 41.849 171.963 42.1198 171.963 42.4375ZM179.885 48.375C179.408 48.375 178.998 48.3125 178.654 48.1875C178.313 48.0625 178.035 47.8971 177.818 47.6914C177.602 47.4857 177.441 47.2604 177.334 47.0156L178.338 46.6016C178.408 46.7161 178.502 46.8372 178.619 46.9648C178.739 47.0951 178.9 47.2057 179.104 47.2969C179.309 47.388 179.574 47.4336 179.896 47.4336C180.339 47.4336 180.705 47.3255 180.994 47.1094C181.283 46.8958 181.428 46.5547 181.428 46.0859V44.9062H181.354C181.283 45.0339 181.182 45.1758 181.049 45.332C180.919 45.4883 180.739 45.6237 180.51 45.7383C180.281 45.8529 179.982 45.9102 179.615 45.9102C179.141 45.9102 178.714 45.7995 178.334 45.5781C177.956 45.3542 177.657 45.0247 177.436 44.5898C177.217 44.1523 177.107 43.6146 177.107 42.9766C177.107 42.3385 177.215 41.7917 177.432 41.3359C177.65 40.8802 177.95 40.5312 178.33 40.2891C178.71 40.0443 179.141 39.9219 179.623 39.9219C179.995 39.9219 180.296 39.9844 180.525 40.1094C180.755 40.2318 180.933 40.375 181.061 40.5391C181.191 40.7031 181.291 40.8477 181.361 40.9727H181.447V40H182.592V46.1328C182.592 46.6484 182.472 47.0716 182.232 47.4023C181.993 47.7331 181.669 47.9779 181.26 48.1367C180.854 48.2956 180.395 48.375 179.885 48.375ZM179.873 44.9414C180.209 44.9414 180.493 44.8633 180.725 44.707C180.959 44.5482 181.136 44.3216 181.256 44.0273C181.378 43.7305 181.439 43.375 181.439 42.9609C181.439 42.5573 181.38 42.2018 181.26 41.8945C181.14 41.5872 180.964 41.3477 180.732 41.1758C180.501 41.0013 180.214 40.9141 179.873 40.9141C179.521 40.9141 179.229 41.0052 178.994 41.1875C178.76 41.3672 178.583 41.612 178.463 41.9219C178.346 42.2318 178.287 42.5781 178.287 42.9609C178.287 43.3542 178.347 43.6992 178.467 43.9961C178.587 44.293 178.764 44.5247 178.998 44.6914C179.235 44.8581 179.527 44.9414 179.873 44.9414ZM188.654 41.4648L187.596 41.6523C187.551 41.5169 187.481 41.388 187.385 41.2656C187.291 41.1432 187.163 41.043 187.002 40.9648C186.84 40.8867 186.639 40.8477 186.396 40.8477C186.066 40.8477 185.79 40.9219 185.568 41.0703C185.347 41.2161 185.236 41.4049 185.236 41.6367C185.236 41.8372 185.311 41.9987 185.459 42.1211C185.607 42.2435 185.847 42.3437 186.178 42.4219L187.131 42.6406C187.683 42.7682 188.094 42.9648 188.365 43.2305C188.636 43.4961 188.771 43.8411 188.771 44.2656C188.771 44.625 188.667 44.9453 188.459 45.2266C188.253 45.5052 187.965 45.724 187.596 45.8828C187.229 46.0417 186.803 46.1211 186.318 46.1211C185.646 46.1211 185.098 45.9779 184.674 45.6914C184.249 45.4023 183.989 44.9922 183.893 44.4609L185.021 44.2891C185.092 44.5833 185.236 44.806 185.455 44.957C185.674 45.1055 185.959 45.1797 186.311 45.1797C186.693 45.1797 186.999 45.1003 187.229 44.9414C187.458 44.7799 187.572 44.5833 187.572 44.3516C187.572 44.1641 187.502 44.0065 187.361 43.8789C187.223 43.7513 187.011 43.6549 186.725 43.5898L185.709 43.3672C185.149 43.2396 184.735 43.0365 184.467 42.7578C184.201 42.4792 184.068 42.1263 184.068 41.6992C184.068 41.3451 184.167 41.0352 184.365 40.7695C184.563 40.5039 184.837 40.2969 185.186 40.1484C185.535 39.9974 185.934 39.9219 186.385 39.9219C187.033 39.9219 187.544 40.0625 187.916 40.3437C188.288 40.6224 188.535 40.9961 188.654 41.4648ZM195.822 40V40.9375H192.432V40H195.822ZM193.361 46V39.3047C193.361 38.9297 193.443 38.6185 193.607 38.3711C193.771 38.1211 193.989 37.9349 194.26 37.8125C194.531 37.6875 194.825 37.625 195.143 37.625C195.377 37.625 195.577 37.6445 195.744 37.6836C195.911 37.7201 196.035 37.7539 196.115 37.7852L195.842 38.7305C195.787 38.7148 195.717 38.6966 195.631 38.6758C195.545 38.6523 195.441 38.6406 195.318 38.6406C195.035 38.6406 194.831 38.7109 194.709 38.8516C194.589 38.9922 194.529 39.1953 194.529 39.4609V46H193.361ZM199.318 46.1211C198.756 46.1211 198.265 45.9922 197.846 45.7344C197.426 45.4766 197.101 45.1159 196.869 44.6523C196.637 44.1888 196.521 43.6471 196.521 43.0273C196.521 42.4049 196.637 41.8607 196.869 41.3945C197.101 40.9284 197.426 40.5664 197.846 40.3086C198.265 40.0508 198.756 39.9219 199.318 39.9219C199.881 39.9219 200.372 40.0508 200.791 40.3086C201.21 40.5664 201.536 40.9284 201.768 41.3945C201.999 41.8607 202.115 42.4049 202.115 43.0273C202.115 43.6471 201.999 44.1888 201.768 44.6523C201.536 45.1159 201.21 45.4766 200.791 45.7344C200.372 45.9922 199.881 46.1211 199.318 46.1211ZM199.322 45.1406C199.687 45.1406 199.989 45.0443 200.229 44.8516C200.468 44.6589 200.645 44.4023 200.76 44.082C200.877 43.7617 200.936 43.4089 200.936 43.0234C200.936 42.6406 200.877 42.2891 200.76 41.9687C200.645 41.6458 200.468 41.3867 200.229 41.1914C199.989 40.9961 199.687 40.8984 199.322 40.8984C198.955 40.8984 198.65 40.9961 198.408 41.1914C198.169 41.3867 197.99 41.6458 197.873 41.9687C197.758 42.2891 197.701 42.6406 197.701 43.0234C197.701 43.4089 197.758 43.7617 197.873 44.082C197.99 44.4023 198.169 44.6589 198.408 44.8516C198.65 45.0443 198.955 45.1406 199.322 45.1406ZM203.419 46V40H204.548V40.9531H204.61C204.72 40.6302 204.912 40.3763 205.188 40.1914C205.467 40.0039 205.782 39.9102 206.134 39.9102C206.207 39.9102 206.293 39.9128 206.392 39.918C206.493 39.9232 206.573 39.9297 206.63 39.9375V41.0547C206.583 41.0417 206.5 41.0273 206.38 41.0117C206.26 40.9935 206.14 40.9844 206.021 40.9844C205.744 40.9844 205.498 41.043 205.282 41.1602C205.069 41.2747 204.899 41.4349 204.774 41.6406C204.649 41.8437 204.587 42.0755 204.587 42.3359V46H203.419ZM211.29 48.25C211.116 48.25 210.957 48.2357 210.813 48.207C210.67 48.181 210.563 48.1523 210.493 48.1211L210.774 47.1641C210.988 47.2214 211.178 47.2461 211.345 47.2383C211.511 47.2305 211.659 47.168 211.786 47.0508C211.916 46.9336 212.031 46.7422 212.13 46.4766L212.274 46.0781L210.079 40H211.329L212.849 44.6562H212.911L214.431 40H215.685L213.212 46.8008C213.097 47.1133 212.951 47.3776 212.774 47.5938C212.597 47.8125 212.386 47.9766 212.142 48.0859C211.897 48.1953 211.613 48.25 211.29 48.25ZM219.105 46.1211C218.543 46.1211 218.052 45.9922 217.633 45.7344C217.214 45.4766 216.888 45.1159 216.656 44.6523C216.424 44.1888 216.309 43.6471 216.309 43.0273C216.309 42.4049 216.424 41.8607 216.656 41.3945C216.888 40.9284 217.214 40.5664 217.633 40.3086C218.052 40.0508 218.543 39.9219 219.105 39.9219C219.668 39.9219 220.159 40.0508 220.578 40.3086C220.997 40.5664 221.323 40.9284 221.555 41.3945C221.786 41.8607 221.902 42.4049 221.902 43.0273C221.902 43.6471 221.786 44.1888 221.555 44.6523C221.323 45.1159 220.997 45.4766 220.578 45.7344C220.159 45.9922 219.668 46.1211 219.105 46.1211ZM219.109 45.1406C219.474 45.1406 219.776 45.0443 220.016 44.8516C220.255 44.6589 220.432 44.4023 220.547 44.082C220.664 43.7617 220.723 43.4089 220.723 43.0234C220.723 42.6406 220.664 42.2891 220.547 41.9687C220.432 41.6458 220.255 41.3867 220.016 41.1914C219.776 40.9961 219.474 40.8984 219.109 40.8984C218.742 40.8984 218.438 40.9961 218.195 41.1914C217.956 41.3867 217.777 41.6458 217.66 41.9687C217.546 42.2891 217.488 42.6406 217.488 43.0234C217.488 43.4089 217.546 43.7617 217.66 44.082C217.777 44.4023 217.956 44.6589 218.195 44.8516C218.438 45.0443 218.742 45.1406 219.109 45.1406ZM227.007 43.5117V40H228.179V46H227.03V44.9609H226.968C226.83 45.2813 226.608 45.5482 226.304 45.7617C226.002 45.9727 225.625 46.0781 225.175 46.0781C224.789 46.0781 224.448 45.9935 224.151 45.8242C223.857 45.6523 223.625 45.3984 223.456 45.0625C223.289 44.7266 223.206 44.3112 223.206 43.8164V40H224.374V43.6758C224.374 44.0846 224.487 44.4102 224.714 44.6523C224.94 44.8945 225.235 45.0156 225.597 45.0156C225.815 45.0156 226.033 44.9609 226.249 44.8516C226.468 44.7422 226.649 44.5768 226.792 44.3555C226.938 44.1341 227.009 43.8529 227.007 43.5117ZM229.748 46V40H230.877V40.9531H230.939C231.049 40.6302 231.242 40.3763 231.518 40.1914C231.796 40.0039 232.111 39.9102 232.463 39.9102C232.536 39.9102 232.622 39.9128 232.721 39.918C232.822 39.9232 232.902 39.9297 232.959 39.9375V41.0547C232.912 41.0417 232.829 41.0273 232.709 41.0117C232.589 40.9935 232.469 40.9844 232.35 40.9844C232.074 40.9844 231.827 41.043 231.611 41.1602C231.398 41.2747 231.229 41.4349 231.104 41.6406C230.979 41.8437 230.916 42.0755 230.916 42.3359V46H229.748ZM241.377 41.4648L240.318 41.6523C240.274 41.5169 240.204 41.388 240.107 41.2656C240.014 41.1432 239.886 41.043 239.725 40.9648C239.563 40.8867 239.361 40.8477 239.119 40.8477C238.788 40.8477 238.512 40.9219 238.291 41.0703C238.07 41.2161 237.959 41.4049 237.959 41.6367C237.959 41.8372 238.033 41.9987 238.182 42.1211C238.33 42.2435 238.57 42.3437 238.9 42.4219L239.854 42.6406C240.406 42.7682 240.817 42.9648 241.088 43.2305C241.359 43.4961 241.494 43.8411 241.494 44.2656C241.494 44.625 241.39 44.9453 241.182 45.2266C240.976 45.5052 240.688 45.724 240.318 45.8828C239.951 46.0417 239.525 46.1211 239.041 46.1211C238.369 46.1211 237.821 45.9779 237.396 45.6914C236.972 45.4023 236.712 44.9922 236.615 44.4609L237.744 44.2891C237.814 44.5833 237.959 44.806 238.178 44.957C238.396 45.1055 238.682 45.1797 239.033 45.1797C239.416 45.1797 239.722 45.1003 239.951 44.9414C240.18 44.7799 240.295 44.5833 240.295 44.3516C240.295 44.1641 240.225 44.0065 240.084 43.8789C239.946 43.7513 239.734 43.6549 239.447 43.5898L238.432 43.3672C237.872 43.2396 237.458 43.0365 237.189 42.7578C236.924 42.4792 236.791 42.1263 236.791 41.6992C236.791 41.3451 236.89 41.0352 237.088 40.7695C237.286 40.5039 237.559 40.2969 237.908 40.1484C238.257 39.9974 238.657 39.9219 239.107 39.9219C239.756 39.9219 240.266 40.0625 240.639 40.3437C241.011 40.6224 241.257 40.9961 241.377 41.4648ZM245.364 46.1211C244.773 46.1211 244.264 45.9948 243.837 45.7422C243.412 45.487 243.084 45.1289 242.853 44.668C242.623 44.2044 242.509 43.6615 242.509 43.0391C242.509 42.4245 242.623 41.8828 242.853 41.4141C243.084 40.9453 243.407 40.5794 243.821 40.3164C244.238 40.0534 244.725 39.9219 245.282 39.9219C245.621 39.9219 245.949 39.9779 246.267 40.0898C246.584 40.2018 246.869 40.3776 247.122 40.6172C247.375 40.8568 247.574 41.168 247.72 41.5508C247.866 41.931 247.938 42.3932 247.938 42.9375V43.3516H243.169V42.4766H246.794C246.794 42.1693 246.731 41.8971 246.606 41.6602C246.481 41.4206 246.306 41.2318 246.079 41.0937C245.855 40.9557 245.592 40.8867 245.29 40.8867C244.962 40.8867 244.675 40.9674 244.431 41.1289C244.188 41.2878 244.001 41.4961 243.868 41.7539C243.738 42.0091 243.673 42.2865 243.673 42.5859V43.2695C243.673 43.6706 243.743 44.0117 243.884 44.293C244.027 44.5742 244.226 44.7891 244.481 44.9375C244.737 45.0833 245.035 45.1562 245.376 45.1562C245.597 45.1562 245.799 45.125 245.981 45.0625C246.164 44.9974 246.321 44.901 246.454 44.7734C246.587 44.6458 246.688 44.4883 246.759 44.3008L247.864 44.5C247.776 44.8255 247.617 45.1107 247.388 45.3555C247.161 45.5977 246.876 45.7865 246.532 45.9219C246.191 46.0547 245.802 46.1211 245.364 46.1211ZM249.234 46V40H250.363V40.9531H250.426C250.535 40.6302 250.728 40.3763 251.004 40.1914C251.283 40.0039 251.598 39.9102 251.949 39.9102C252.022 39.9102 252.108 39.9128 252.207 39.918C252.309 39.9232 252.388 39.9297 252.445 39.9375V41.0547C252.398 41.0417 252.315 41.0273 252.195 41.0117C252.076 40.9935 251.956 40.9844 251.836 40.9844C251.56 40.9844 251.314 41.043 251.098 41.1602C250.884 41.2747 250.715 41.4349 250.59 41.6406C250.465 41.8437 250.402 42.0755 250.402 42.3359V46H249.234ZM258.771 40L256.596 46H255.346L253.166 40H254.42L255.939 44.6172H256.002L257.518 40H258.771ZM262.251 46.1211C261.66 46.1211 261.151 45.9948 260.724 45.7422C260.299 45.487 259.971 45.1289 259.739 44.668C259.51 44.2044 259.396 43.6615 259.396 43.0391C259.396 42.4245 259.51 41.8828 259.739 41.4141C259.971 40.9453 260.294 40.5794 260.708 40.3164C261.125 40.0534 261.612 39.9219 262.169 39.9219C262.507 39.9219 262.836 39.9779 263.153 40.0898C263.471 40.2018 263.756 40.3776 264.009 40.6172C264.261 40.8568 264.461 41.168 264.606 41.5508C264.752 41.931 264.825 42.3932 264.825 42.9375V43.3516H260.056V42.4766H263.681C263.681 42.1693 263.618 41.8971 263.493 41.6602C263.368 41.4206 263.192 41.2318 262.966 41.0937C262.742 40.9557 262.479 40.8867 262.177 40.8867C261.849 40.8867 261.562 40.9674 261.317 41.1289C261.075 41.2878 260.888 41.4961 260.755 41.7539C260.625 42.0091 260.56 42.2865 260.56 42.5859V43.2695C260.56 43.6706 260.63 44.0117 260.771 44.293C260.914 44.5742 261.113 44.7891 261.368 44.9375C261.623 45.0833 261.922 45.1562 262.263 45.1562C262.484 45.1562 262.686 45.125 262.868 45.0625C263.05 44.9974 263.208 44.901 263.341 44.7734C263.474 44.6458 263.575 44.4883 263.646 44.3008L264.751 44.5C264.662 44.8255 264.504 45.1107 264.274 45.3555C264.048 45.5977 263.763 45.7865 263.419 45.9219C263.078 46.0547 262.688 46.1211 262.251 46.1211ZM266.121 46V40H267.25V40.9531H267.312C267.422 40.6302 267.615 40.3763 267.891 40.1914C268.169 40.0039 268.484 39.9102 268.836 39.9102C268.909 39.9102 268.995 39.9128 269.094 39.918C269.195 39.9232 269.275 39.9297 269.332 39.9375V41.0547C269.285 41.0417 269.202 41.0273 269.082 41.0117C268.962 40.9935 268.842 40.9844 268.723 40.9844C268.447 40.9844 268.201 41.043 267.984 41.1602C267.771 41.2747 267.602 41.4349 267.477 41.6406C267.352 41.8437 267.289 42.0755 267.289 42.3359V46H266.121ZM271.529 38V38.75C271.529 38.9714 271.488 39.2044 271.404 39.4492C271.324 39.6914 271.209 39.9245 271.061 40.1484C270.912 40.3724 270.738 40.5651 270.537 40.7266L269.959 40.3125C270.113 40.0885 270.245 39.8503 270.357 39.5977C270.472 39.3451 270.529 39.0664 270.529 38.7617V38H271.529ZM276.396 41.4648L275.338 41.6523C275.294 41.5169 275.223 41.388 275.127 41.2656C275.033 41.1432 274.906 41.043 274.744 40.9648C274.583 40.8867 274.381 40.8477 274.139 40.8477C273.808 40.8477 273.532 40.9219 273.311 41.0703C273.089 41.2161 272.979 41.4049 272.979 41.6367C272.979 41.8372 273.053 41.9987 273.201 42.1211C273.35 42.2435 273.589 42.3437 273.92 42.4219L274.873 42.6406C275.425 42.7682 275.837 42.9648 276.107 43.2305C276.378 43.4961 276.514 43.8411 276.514 44.2656C276.514 44.625 276.41 44.9453 276.201 45.2266C275.995 45.5052 275.708 45.724 275.338 45.8828C274.971 46.0417 274.545 46.1211 274.061 46.1211C273.389 46.1211 272.84 45.9779 272.416 45.6914C271.992 45.4023 271.731 44.9922 271.635 44.4609L272.764 44.2891C272.834 44.5833 272.979 44.806 273.197 44.957C273.416 45.1055 273.701 45.1797 274.053 45.1797C274.436 45.1797 274.742 45.1003 274.971 44.9414C275.2 44.7799 275.314 44.5833 275.314 44.3516C275.314 44.1641 275.244 44.0065 275.104 43.8789C274.965 43.7513 274.753 43.6549 274.467 43.5898L273.451 43.3672C272.891 43.2396 272.477 43.0365 272.209 42.7578C271.943 42.4792 271.811 42.1263 271.811 41.6992C271.811 41.3451 271.91 41.0352 272.107 40.7695C272.305 40.5039 272.579 40.2969 272.928 40.1484C273.277 39.9974 273.676 39.9219 274.127 39.9219C274.775 39.9219 275.286 40.0625 275.658 40.3437C276.031 40.6224 276.277 40.9961 276.396 41.4648ZM280.709 46V40H281.83V40.9766H281.904C282.029 40.6458 282.234 40.388 282.518 40.2031C282.801 40.0156 283.141 39.9219 283.537 39.9219C283.938 39.9219 284.274 40.0156 284.545 40.2031C284.818 40.3906 285.02 40.6484 285.15 40.9766H285.213C285.356 40.6562 285.584 40.401 285.896 40.2109C286.209 40.0182 286.581 39.9219 287.014 39.9219C287.558 39.9219 288.002 40.0924 288.346 40.4336C288.692 40.7747 288.865 41.2891 288.865 41.9766V46H287.697V42.0859C287.697 41.6797 287.587 41.3854 287.365 41.2031C287.144 41.0208 286.88 40.9297 286.572 40.9297C286.192 40.9297 285.896 41.0469 285.686 41.2812C285.475 41.513 285.369 41.8112 285.369 42.1758V46H284.205V42.0117C284.205 41.6862 284.104 41.4245 283.9 41.2266C283.697 41.0286 283.433 40.9297 283.107 40.9297C282.886 40.9297 282.682 40.9883 282.494 41.1055C282.309 41.2201 282.16 41.3802 282.045 41.5859C281.933 41.7917 281.877 42.0299 281.877 42.3008V46H280.709ZM292.958 46.1211C292.396 46.1211 291.905 45.9922 291.485 45.7344C291.066 45.4766 290.741 45.1159 290.509 44.6523C290.277 44.1888 290.161 43.6471 290.161 43.0273C290.161 42.4049 290.277 41.8607 290.509 41.3945C290.741 40.9284 291.066 40.5664 291.485 40.3086C291.905 40.0508 292.396 39.9219 292.958 39.9219C293.521 39.9219 294.011 40.0508 294.431 40.3086C294.85 40.5664 295.175 40.9284 295.407 41.3945C295.639 41.8607 295.755 42.4049 295.755 43.0273C295.755 43.6471 295.639 44.1888 295.407 44.6523C295.175 45.1159 294.85 45.4766 294.431 45.7344C294.011 45.9922 293.521 46.1211 292.958 46.1211ZM292.962 45.1406C293.326 45.1406 293.629 45.0443 293.868 44.8516C294.108 44.6589 294.285 44.4023 294.399 44.082C294.517 43.7617 294.575 43.4089 294.575 43.0234C294.575 42.6406 294.517 42.2891 294.399 41.9687C294.285 41.6458 294.108 41.3867 293.868 41.1914C293.629 40.9961 293.326 40.8984 292.962 40.8984C292.595 40.8984 292.29 40.9961 292.048 41.1914C291.808 41.3867 291.63 41.6458 291.513 41.9687C291.398 42.2891 291.341 42.6406 291.341 43.0234C291.341 43.4089 291.398 43.7617 291.513 44.082C291.63 44.4023 291.808 44.6589 292.048 44.8516C292.29 45.0443 292.595 45.1406 292.962 45.1406ZM299.305 46.1172C298.82 46.1172 298.388 45.9935 298.008 45.7461C297.63 45.4961 297.333 45.1406 297.117 44.6797C296.904 44.2161 296.797 43.6602 296.797 43.0117C296.797 42.3633 296.905 41.8086 297.121 41.3477C297.34 40.8867 297.639 40.5339 298.02 40.2891C298.4 40.0443 298.831 39.9219 299.312 39.9219C299.685 39.9219 299.984 39.9844 300.211 40.1094C300.44 40.2318 300.617 40.375 300.742 40.5391C300.87 40.7031 300.969 40.8477 301.039 40.9727H301.109V38H302.277V46H301.137V45.0664H301.039C300.969 45.194 300.867 45.3398 300.734 45.5039C300.604 45.668 300.424 45.8112 300.195 45.9336C299.966 46.056 299.669 46.1172 299.305 46.1172ZM299.563 45.1211C299.898 45.1211 300.182 45.0326 300.414 44.8555C300.648 44.6758 300.826 44.4271 300.945 44.1094C301.068 43.7917 301.129 43.4219 301.129 43C301.129 42.5833 301.069 42.2187 300.949 41.9062C300.829 41.5937 300.654 41.3503 300.422 41.1758C300.19 41.0013 299.904 40.9141 299.563 40.9141C299.211 40.9141 298.918 41.0052 298.684 41.1875C298.449 41.3698 298.272 41.6185 298.152 41.9336C298.035 42.2487 297.977 42.6042 297.977 43C297.977 43.401 298.036 43.7617 298.156 44.082C298.276 44.4023 298.453 44.6562 298.688 44.8437C298.924 45.0286 299.216 45.1211 299.563 45.1211ZM307.745 43.5117V40H308.917V46H307.769V44.9609H307.706C307.568 45.2813 307.347 45.5482 307.042 45.7617C306.74 45.9727 306.364 46.0781 305.913 46.0781C305.528 46.0781 305.187 45.9935 304.89 45.8242C304.595 45.6523 304.364 45.3984 304.194 45.0625C304.028 44.7266 303.944 44.3112 303.944 43.8164V40H305.112V43.6758C305.112 44.0846 305.226 44.4102 305.452 44.6523C305.679 44.8945 305.973 45.0156 306.335 45.0156C306.554 45.0156 306.771 44.9609 306.987 44.8516C307.206 44.7422 307.387 44.5768 307.53 44.3555C307.676 44.1341 307.748 43.8529 307.745 43.5117ZM311.654 38V46H310.486V38H311.654ZM315.812 46.1211C315.22 46.1211 314.711 45.9948 314.284 45.7422C313.86 45.487 313.532 45.1289 313.3 44.668C313.071 44.2044 312.956 43.6615 312.956 43.0391C312.956 42.4245 313.071 41.8828 313.3 41.4141C313.532 40.9453 313.854 40.5794 314.269 40.3164C314.685 40.0534 315.172 39.9219 315.729 39.9219C316.068 39.9219 316.396 39.9779 316.714 40.0898C317.032 40.2018 317.317 40.3776 317.569 40.6172C317.822 40.8568 318.021 41.168 318.167 41.5508C318.313 41.931 318.386 42.3932 318.386 42.9375V43.3516H313.616V42.4766H317.241C317.241 42.1693 317.179 41.8971 317.054 41.6602C316.929 41.4206 316.753 41.2318 316.526 41.0937C316.302 40.9557 316.039 40.8867 315.737 40.8867C315.409 40.8867 315.123 40.9674 314.878 41.1289C314.636 41.2878 314.448 41.4961 314.315 41.7539C314.185 42.0091 314.12 42.2865 314.12 42.5859V43.2695C314.12 43.6706 314.19 44.0117 314.331 44.293C314.474 44.5742 314.674 44.7891 314.929 44.9375C315.184 45.0833 315.482 45.1562 315.823 45.1562C316.045 45.1562 316.246 45.125 316.429 45.0625C316.611 44.9974 316.769 44.901 316.901 44.7734C317.034 44.6458 317.136 44.4883 317.206 44.3008L318.312 44.5C318.223 44.8255 318.064 45.1107 317.835 45.3555C317.608 45.5977 317.323 45.7865 316.979 45.9219C316.638 46.0547 316.249 46.1211 315.812 46.1211ZM324.178 41.4648L323.119 41.6523C323.075 41.5169 323.005 41.388 322.908 41.2656C322.814 41.1432 322.687 41.043 322.525 40.9648C322.364 40.8867 322.162 40.8477 321.92 40.8477C321.589 40.8477 321.313 40.9219 321.092 41.0703C320.87 41.2161 320.76 41.4049 320.76 41.6367C320.76 41.8372 320.834 41.9987 320.982 42.1211C321.131 42.2435 321.37 42.3437 321.701 42.4219L322.654 42.6406C323.206 42.7682 323.618 42.9648 323.889 43.2305C324.16 43.4961 324.295 43.8411 324.295 44.2656C324.295 44.625 324.191 44.9453 323.982 45.2266C323.777 45.5052 323.489 45.724 323.119 45.8828C322.752 46.0417 322.326 46.1211 321.842 46.1211C321.17 46.1211 320.622 45.9779 320.197 45.6914C319.773 45.4023 319.512 44.9922 319.416 44.4609L320.545 44.2891C320.615 44.5833 320.76 44.806 320.979 44.957C321.197 45.1055 321.482 45.1797 321.834 45.1797C322.217 45.1797 322.523 45.1003 322.752 44.9414C322.981 44.7799 323.096 44.5833 323.096 44.3516C323.096 44.1641 323.025 44.0065 322.885 43.8789C322.747 43.7513 322.535 43.6549 322.248 43.5898L321.232 43.3672C320.673 43.2396 320.258 43.0365 319.99 42.7578C319.725 42.4792 319.592 42.1263 319.592 41.6992C319.592 41.3451 319.691 41.0352 319.889 40.7695C320.087 40.5039 320.36 40.2969 320.709 40.1484C321.058 39.9974 321.458 39.9219 321.908 39.9219C322.557 39.9219 323.067 40.0625 323.439 40.3437C323.812 40.6224 324.058 40.9961 324.178 41.4648ZM326.349 46.0742C326.135 46.0742 325.951 45.9987 325.798 45.8477C325.644 45.694 325.567 45.5091 325.567 45.293C325.567 45.0794 325.644 44.8971 325.798 44.7461C325.951 44.5924 326.135 44.5156 326.349 44.5156C326.562 44.5156 326.746 44.5924 326.899 44.7461C327.053 44.8971 327.13 45.0794 327.13 45.293C327.13 45.4362 327.093 45.5677 327.021 45.6875C326.95 45.8047 326.856 45.8984 326.739 45.9687C326.622 46.0391 326.492 46.0742 326.349 46.0742Z" fill="#999CA3"/>
<rect x="15" y="58" width="58" height="58" rx="5" fill="#0E1015"/>
<path fill-rule="evenodd" clip-rule="evenodd" d="M33 95.25H43.5V97H33V95.25ZM42.625 94.375H33.875C33.875 93.4081 34.6581 92.625 35.625 92.625H40.875C41.8419 92.625 42.625 93.4081 42.625 94.375ZM48.1979 83.1409L46.2326 85.0632C46.2326 85.0632 51.7372 89.9116 53.3831 91.3143C53.7987 91.6686 54 92.1271 54 92.5795C54 93.4676 53.223 94.2297 52.2937 94.1711C51.8387 94.1431 51.4354 93.906 51.1379 93.5612C49.7213 91.9206 44.9516 86.3434 44.9516 86.3434L42.9872 88.2649L37.8624 83.1409L43.0748 78.016L48.1979 83.1409ZM37.4363 83.9511C37.2656 83.7822 37.0355 83.6869 36.7949 83.6869C36.5551 83.6869 36.325 83.7822 36.1544 83.9511C35.9855 84.1217 35.8893 84.3519 35.8893 84.5925C35.8893 84.8323 35.9855 85.0624 36.1544 85.233L40.9782 90.0551C41.148 90.2257 41.3781 90.3211 41.6188 90.3211C41.8594 90.3211 42.0895 90.2257 42.2592 90.0551C42.429 89.8862 42.5244 89.6553 42.5244 89.4146C42.5244 89.1749 42.429 88.9447 42.2592 88.775L37.4363 83.9511ZM45.1223 76.2651C44.9516 76.0954 44.7215 76 44.4818 76C43.9778 76 43.5761 76.4086 43.5761 76.9056C43.5761 77.1462 43.6706 77.3772 43.8412 77.5461L48.6651 82.37C48.8349 82.5389 49.0641 82.6351 49.3048 82.6351C49.8053 82.6351 50.2113 82.2291 50.2113 81.7295C50.2113 81.4889 50.1159 81.2579 49.9452 81.089L45.1223 76.2651Z" fill="#DD364D"/>
<rect x="79" y="58" width="58" height="58" rx="5" fill="#0E1015"/>
<path fill-rule="evenodd" clip-rule="evenodd" d="M97 95.25H107.5V97H97V95.25ZM106.625 94.375H97.875C97.875 93.4081 98.6581 92.625 99.625 92.625H104.875C105.842 92.625 106.625 93.4081 106.625 94.375ZM112.198 83.1409L110.233 85.0632C110.233 85.0632 115.737 89.9116 117.383 91.3143C117.799 91.6686 118 92.1271 118 92.5795C118 93.4676 117.223 94.2297 116.294 94.1711C115.839 94.1431 115.435 93.906 115.138 93.5612C113.721 91.9206 108.952 86.3434 108.952 86.3434L106.987 88.2649L101.862 83.1409L107.075 78.016L112.198 83.1409ZM101.436 83.9511C101.266 83.7822 101.035 83.6869 100.795 83.6869C100.555 83.6869 100.325 83.7822 100.154 83.9511C99.9855 84.1217 99.8893 84.3519 99.8893 84.5925C99.8893 84.8323 99.9855 85.0624 100.154 85.233L104.978 90.0551C105.148 90.2257 105.378 90.3211 105.619 90.3211C105.859 90.3211 106.089 90.2257 106.259 90.0551C106.429 89.8862 106.524 89.6553 106.524 89.4146C106.524 89.1749 106.429 88.9447 106.259 88.775L101.436 83.9511ZM109.122 76.2651C108.952 76.0954 108.722 76 108.482 76C107.978 76 107.576 76.4086 107.576 76.9056C107.576 77.1462 107.671 77.3772 107.841 77.5461L112.665 82.37C112.835 82.5389 113.064 82.6351 113.305 82.6351C113.805 82.6351 114.211 82.2291 114.211 81.7295C114.211 81.4889 114.116 81.2579 113.945 81.089L109.122 76.2651Z" fill="#DD364D"/>
<rect x="143" y="58" width="58" height="58" rx="5" fill="#0E1015"/>
<path fill-rule="evenodd" clip-rule="evenodd" d="M161 95.25H171.5V97H161V95.25ZM170.625 94.375H161.875C161.875 93.4081 162.658 92.625 163.625 92.625H168.875C169.842 92.625 170.625 93.4081 170.625 94.375ZM176.198 83.1409L174.233 85.0632C174.233 85.0632 179.737 89.9116 181.383 91.3143C181.799 91.6686 182 92.1271 182 92.5795C182 93.4676 181.223 94.2297 180.294 94.1711C179.839 94.1431 179.435 93.906 179.138 93.5612C177.721 91.9206 172.952 86.3434 172.952 86.3434L170.987 88.2649L165.862 83.1409L171.075 78.016L176.198 83.1409ZM165.436 83.9511C165.266 83.7822 165.035 83.6869 164.795 83.6869C164.555 83.6869 164.325 83.7822 164.154 83.9511C163.985 84.1217 163.889 84.3519 163.889 84.5925C163.889 84.8323 163.985 85.0624 164.154 85.233L168.978 90.0551C169.148 90.2257 169.378 90.3211 169.619 90.3211C169.859 90.3211 170.089 90.2257 170.259 90.0551C170.429 89.8862 170.524 89.6553 170.524 89.4146C170.524 89.1749 170.429 88.9447 170.259 88.775L165.436 83.9511ZM173.122 76.2651C172.952 76.0954 172.722 76 172.482 76C171.978 76 171.576 76.4086 171.576 76.9056C171.576 77.1462 171.671 77.3772 171.841 77.5461L176.665 82.37C176.835 82.5389 177.064 82.6351 177.305 82.6351C177.805 82.6351 178.211 82.2291 178.211 81.7295C178.211 81.4889 178.116 81.2579 177.945 81.089L173.122 76.2651Z" fill="#DD364D"/>
<rect x="207" y="58" width="58" height="58" rx="5" fill="#0E1015"/>
<path fill-rule="evenodd" clip-rule="evenodd" d="M225 95.25H235.5V97H225V95.25ZM234.625 94.375H225.875C225.875 93.4081 226.658 92.625 227.625 92.625H232.875C233.842 92.625 234.625 93.4081 234.625 94.375ZM240.198 83.1409L238.233 85.0632C238.233 85.0632 243.737 89.9116 245.383 91.3143C245.799 91.6686 246 92.1271 246 92.5795C246 93.4676 245.223 94.2297 244.294 94.1711C243.839 94.1431 243.435 93.906 243.138 93.5612C241.721 91.9206 236.952 86.3434 236.952 86.3434L234.987 88.2649L229.862 83.1409L235.075 78.016L240.198 83.1409ZM229.436 83.9511C229.266 83.7822 229.035 83.6869 228.795 83.6869C228.555 83.6869 228.325 83.7822 228.154 83.9511C227.985 84.1217 227.889 84.3519 227.889 84.5925C227.889 84.8323 227.985 85.0624 228.154 85.233L232.978 90.0551C233.148 90.2257 233.378 90.3211 233.619 90.3211C233.859 90.3211 234.089 90.2257 234.259 90.0551C234.429 89.8862 234.524 89.6553 234.524 89.4146C234.524 89.1749 234.429 88.9447 234.259 88.775L229.436 83.9511ZM237.122 76.2651C236.952 76.0954 236.722 76 236.482 76C235.978 76 235.576 76.4086 235.576 76.9056C235.576 77.1462 235.671 77.3772 235.841 77.5461L240.665 82.37C240.835 82.5389 241.064 82.6351 241.305 82.6351C241.805 82.6351 242.211 82.2291 242.211 81.7295C242.211 81.4889 242.116 81.2579 241.945 81.089L237.122 76.2651Z" fill="#DD364D"/>
<rect x="271" y="58" width="58" height="58" rx="5" fill="#0E1015"/>
<path fill-rule="evenodd" clip-rule="evenodd" d="M289 95.25H299.5V97H289V95.25ZM298.625 94.375H289.875C289.875 93.4081 290.658 92.625 291.625 92.625H296.875C297.842 92.625 298.625 93.4081 298.625 94.375ZM304.198 83.1409L302.233 85.0632C302.233 85.0632 307.737 89.9116 309.383 91.3143C309.799 91.6686 310 92.1271 310 92.5795C310 93.4676 309.223 94.2297 308.294 94.1711C307.839 94.1431 307.435 93.906 307.138 93.5612C305.721 91.9206 300.952 86.3434 300.952 86.3434L298.987 88.2649L293.862 83.1409L299.075 78.016L304.198 83.1409ZM293.436 83.9511C293.266 83.7822 293.035 83.6869 292.795 83.6869C292.555 83.6869 292.325 83.7822 292.154 83.9511C291.985 84.1217 291.889 84.3519 291.889 84.5925C291.889 84.8323 291.985 85.0624 292.154 85.233L296.978 90.0551C297.148 90.2257 297.378 90.3211 297.619 90.3211C297.859 90.3211 298.089 90.2257 298.259 90.0551C298.429 89.8862 298.524 89.6553 298.524 89.4146C298.524 89.1749 298.429 88.9447 298.259 88.775L293.436 83.9511ZM301.122 76.2651C300.952 76.0954 300.722 76 300.482 76C299.978 76 299.576 76.4086 299.576 76.9056C299.576 77.1462 299.671 77.3772 299.841 77.5461L304.665 82.37C304.835 82.5389 305.064 82.6351 305.305 82.6351C305.805 82.6351 306.211 82.2291 306.211 81.7295C306.211 81.4889 306.116 81.2579 305.945 81.089L301.122 76.2651Z" fill="#DD364D"/>
</svg>
